<?xml version="1.0" encoding="UTF-8" standalone="no"?>
<!-- Created with Inkscape (http://www.inkscape.org/) -->

<svg
   xmlns:dc="http://purl.org/dc/elements/1.1/"
   xmlns:cc="http://creativecommons.org/ns#"
   xmlns:rdf="http://www.w3.org/1999/02/22-rdf-syntax-ns#"
   xmlns:svg="http://www.w3.org/2000/svg"
   xmlns="http://www.w3.org/2000/svg"
   xmlns:sodipodi="http://sodipodi.sourceforge.net/DTD/sodipodi-0.dtd"
   xmlns:inkscape="http://www.inkscape.org/namespaces/inkscape"
   width="200"
   height="200"
   viewBox="0 0 200 200"
   id="svg2"
   version="1.1"
   inkscape:version="0.91 r13725"
   sodipodi:docname="about.svg">
  <defs
     id="defs4" />
  <sodipodi:namedview
     id="base"
     pagecolor="#ffffff"
     bordercolor="#666666"
     borderopacity="1.0"
     inkscape:pageopacity="0.0"
     inkscape:pageshadow="2"
     inkscape:zoom="1.6281134"
     inkscape:cx="109.40043"
     inkscape:cy="110.27717"
     inkscape:document-units="px"
     inkscape:current-layer="layer1"
     showgrid="true"
     units="px"
     inkscape:window-width="1855"
     inkscape:window-height="1056"
     inkscape:window-x="65"
     inkscape:window-y="24"
     inkscape:window-maximized="1">
    <inkscape:grid
       type="xygrid"
       id="grid4136"
       empspacing="5"
       spacingx="10"
       spacingy="10"
       color="#4f6bd5"
       opacity="0.20784314"
       empcolor="#3f1e12"
       empopacity="0.96862745" />
  </sodipodi:namedview>
  <metadata
     id="metadata7">
    <rdf:RDF>
      <cc:Work
         rdf:about="">
        <dc:format>image/svg+xml</dc:format>
        <dc:type
           rdf:resource="http://purl.org/dc/dcmitype/StillImage" />
        <dc:title></dc:title>
      </cc:Work>
    </rdf:RDF>
  </metadata>
  <g
     inkscape:label="Layer 1"
     inkscape:groupmode="layer"
     id="layer1"
     transform="translate(0,-852.36216)">
    <path
       style="fill:#fffffa;fill-opacity:1;stroke:none;stroke-opacity:1"
       d="m 100,864.44716 c -39.764502,0 -72,20.14719 -72,45 l 21.682617,0 c -0.0052,-0.0808 -0.0099,-0.1617 -0.01407,-0.24258 0,-17.39697 22.564851,-27.0777 50.4,-27.0777 27.83515,10e-6 50.39999,9.68074 50.39999,27.0777 -0.007,10.79886 -8.86398,20.84287 -23.46854,26.61328 l 0,15.31407 c 27.18105,-6.87204 44.97957,-23.35931 45,-41.68477 0,-24.85281 -32.2355,-45 -72,-45 z"
       id="path4706"
       inkscape:connector-curvature="0"
       sodipodi:nodetypes="scccsccccs" />
    <path
       style="fill:#fffffa;fill-opacity:1;fill-rule:evenodd;stroke:none;stroke-width:1px;stroke-linecap:butt;stroke-linejoin:miter;stroke-opacity:1"
       d="m 127,954.08716 0,-18 c -27,0 -27,0 -36,9 -9,9 -9,18 -9,18 l 0,36.00004 18,0 0,-18.00004 c 0,-18 0,-27 26.75803,-29.90213 L 145,936.08716 l -18,0"
       id="path4733"
       inkscape:connector-curvature="0"
       sodipodi:nodetypes="cccccccccc" />
    <circle
       style="fill:#fffffa;fill-opacity:1;stroke:none;stroke-opacity:1"
       id="path4735"
       cx="91.449997"
       cy="1022.5772"
       r="18" />
  </g>
  <g
     inkscape:groupmode="layer"
     id="layer2"
     inkscape:label="Layer 2"
     style="display:inline" />
</svg>
