<?xml version="1.0" encoding="UTF-8" standalone="no"?>
<!-- Created with Inkscape (http://www.inkscape.org/) -->

<svg
   xmlns:dc="http://purl.org/dc/elements/1.1/"
   xmlns:cc="http://creativecommons.org/ns#"
   xmlns:rdf="http://www.w3.org/1999/02/22-rdf-syntax-ns#"
   xmlns:svg="http://www.w3.org/2000/svg"
   xmlns="http://www.w3.org/2000/svg"
   xmlns:sodipodi="http://sodipodi.sourceforge.net/DTD/sodipodi-0.dtd"
   xmlns:inkscape="http://www.inkscape.org/namespaces/inkscape"
   width="1900"
   height="1800"
   viewBox="0 0 1900.0002 1800"
   id="svg16540"
   version="1.1"
   inkscape:version="0.91 r13725"
   sodipodi:docname="background-content-big.svg">
  <defs
     id="defs16542" />
  <sodipodi:namedview
     id="base"
     pagecolor="#ffffff"
     bordercolor="#666666"
     borderopacity="1.0"
     inkscape:pageopacity="0.0"
     inkscape:pageshadow="2"
     inkscape:zoom="0.35"
     inkscape:cx="1209.7216"
     inkscape:cy="522.2518"
     inkscape:document-units="px"
     inkscape:current-layer="layer5"
     showgrid="true"
     units="px"
     inkscape:window-width="1855"
     inkscape:window-height="1056"
     inkscape:window-x="65"
     inkscape:window-y="24"
     inkscape:window-maximized="1"
     fit-margin-left="200"
     fit-margin-top="100"
     fit-margin-right="50"
     fit-margin-bottom="100">
    <inkscape:grid
       type="xygrid"
       id="grid4242"
       empspacing="100" />
  </sodipodi:namedview>
  <metadata
     id="metadata16545">
    <rdf:RDF>
      <cc:Work
         rdf:about="">
        <dc:format>image/svg+xml</dc:format>
        <dc:type
           rdf:resource="http://purl.org/dc/dcmitype/StillImage" />
        <dc:title></dc:title>
      </cc:Work>
    </rdf:RDF>
  </metadata>
  <g
     inkscape:groupmode="layer"
     id="layer6"
     inkscape:label="background"
     transform="translate(0,900.00011)">
    <circle
       style="fill:#56a13c;fill-opacity:1;stroke:none;stroke-width:5;stroke-linecap:round;stroke-linejoin:bevel;stroke-miterlimit:4;stroke-dasharray:none;stroke-dashoffset:37.41999817;stroke-opacity:1"
       id="path4166"
       cx="952.94427"
       cy="-455.05582"
       r="300" />
    <path
       style="display:inline;fill:#34342c;fill-opacity:0.52216749;stroke:none;stroke-width:5;stroke-linecap:round;stroke-linejoin:bevel;stroke-miterlimit:4;stroke-dasharray:none;stroke-dashoffset:37.41999817;stroke-opacity:1"
       d="m 970.61251,-606.5646 c -13.95975,-6.44531 -31.44654,-2.04542 -39.2081,9.86524 l -166.7145,255.83605 c -7.76154,11.91068 -2.77164,26.68823 11.18809,33.13357 l 446.4651,206.13612 c 13.96,6.445378 31.4467,2.045488 39.2083,-9.8652 l 166.7145,-255.83606 c 7.7616,-11.91067 2.7716,-26.68819 -11.1883,-33.13356 L 970.61251,-606.5646 Z m 320.77659,186.6634 87.8153,40.54499 c 5.0064,2.31147 6.2029,8.51938 2.6843,13.91888 l -25.7915,39.57905 c -3.5184,5.39949 -10.381,7.88648 -15.3873,5.575 l -87.8155,-40.54498 c -5.0062,-2.31142 -6.2049,-8.52028 -2.6862,-13.91979 l 25.7914,-39.57903 c 3.5186,-5.3995 10.3833,-7.88555 15.3895,-5.57412 z"
       id="rect17090-8"
       inkscape:connector-curvature="0" />
  </g>
  <g
     inkscape:label="Layer 1"
     inkscape:groupmode="layer"
     id="layer1"
     transform="translate(143.33009,787.01909)"
     style="display:inline">
    <rect
       style="fill:#830c0c;fill-opacity:1;stroke:none;stroke-width:5;stroke-linecap:round;stroke-linejoin:bevel;stroke-miterlimit:4;stroke-dasharray:none;stroke-dashoffset:37.41999817;stroke-opacity:1"
       id="rect17094"
       width="46.285713"
       height="26.285711"
       x="935.39691"
       y="-485.24997"
       rx="4.7647057"
       ry="5.9354835" />
    <rect
       style="fill:#4261ba;fill-opacity:1;stroke:none;stroke-width:5;stroke-linecap:round;stroke-linejoin:bevel;stroke-miterlimit:4;stroke-dasharray:none;stroke-dashoffset:37.41999817;stroke-opacity:1"
       id="rect17092"
       width="84.044678"
       height="54.952293"
       x="898.35156"
       y="-445.46066"
       rx="7.1724138"
       ry="9.0666676" />
    <rect
       style="fill:#85a2f7;fill-opacity:1;stroke:none;stroke-width:5;stroke-linecap:round;stroke-linejoin:bevel;stroke-miterlimit:4;stroke-dasharray:none;stroke-dashoffset:37.41999817;stroke-opacity:1"
       id="rect17092-1"
       width="84.044693"
       height="54.952301"
       x="907.08887"
       y="-436.7261"
       rx="7.1724143"
       ry="9.0666676" />
    <rect
       style="fill:#fcfcfd;fill-opacity:1;stroke:none;stroke-width:5;stroke-linecap:round;stroke-linejoin:bevel;stroke-miterlimit:4;stroke-dasharray:none;stroke-dashoffset:37.41999817;stroke-opacity:1"
       id="rect4178"
       width="68"
       height="4"
       x="907.39691"
       y="-435.07858"
       rx="2.2488189"
       ry="4" />
    <rect
       style="display:inline;fill:#fcfcfd;fill-opacity:1;stroke:none;stroke-width:5;stroke-linecap:round;stroke-linejoin:bevel;stroke-miterlimit:4;stroke-dasharray:none;stroke-dashoffset:37.41999817;stroke-opacity:1"
       id="rect4178-8"
       width="68.000008"
       height="4.0000005"
       x="907.39691"
       y="-423.07858"
       rx="2.2488191"
       ry="4.0000005" />
    <rect
       style="display:inline;fill:#fcfcfd;fill-opacity:1;stroke:none;stroke-width:5;stroke-linecap:round;stroke-linejoin:bevel;stroke-miterlimit:4;stroke-dasharray:none;stroke-dashoffset:37.41999817;stroke-opacity:1"
       id="rect4178-8-4"
       width="68.000015"
       height="4.000001"
       x="907.39691"
       y="-411.07858"
       rx="2.2488194"
       ry="4.000001" />
    <path
       style="fill:#4d4d4d;fill-opacity:1;stroke:none;stroke-width:5;stroke-linecap:round;stroke-linejoin:bevel;stroke-miterlimit:4;stroke-dasharray:none;stroke-dashoffset:37.41999817;stroke-opacity:1"
       d="m 754.44713,-516.75468 89.71429,0.57142 c 4.43191,0.0282 7.15406,3.64948 8,8 l 8,41.14287 c 0.84593,4.35052 -3.568,8 -8,8 l -110.85715,0 c -4.432,0 -9.33184,-3.77285 -8,-8 l 13.14286,-41.71429 c 1.33185,-4.22715 3.56809,-8.02823 8,-8 z"
       id="rect4239"
       inkscape:connector-curvature="0"
       sodipodi:nodetypes="sssssssss" />
  </g>
  <g
     inkscape:groupmode="layer"
     id="layer2"
     inkscape:label="camera-body"
     style="display:inline"
     transform="translate(143.33009,1239.3811)">
    <path
       style="fill:#e3e3df;fill-opacity:1;stroke:none;stroke-width:5;stroke-linecap:round;stroke-linejoin:bevel;stroke-miterlimit:4;stroke-dasharray:none;stroke-dashoffset:37.41999817;stroke-opacity:1"
       d="m 635.59,-925.39613 c -11.08,0 -20,8.92 -20,20 l 0,237.99375 c 0,11.08 8.92,20 20,20 l 354.36409,0 c 11.08001,0 20.00001,-8.92 20.00001,-20 l 0,-237.99375 c 0,-11.08 -8.92,-20 -20.00001,-20 l -354.36409,0 z m 269.93438,27.57344 69.7,0 c 3.97355,0 7.17187,4.04426 7.17187,9.06719 l 0,36.81875 c 0,5.02293 -3.19832,9.06719 -7.17187,9.06719 l -69.7,0 c -3.97352,0 -7.17344,-4.04426 -7.17344,-9.06719 l 0,-36.81875 c 0,-5.02293 3.19992,-9.06719 7.17344,-9.06719 z"
       id="rect17090"
       inkscape:connector-curvature="0" />
    <rect
       style="display:inline;fill:#4d4d4d;fill-opacity:1;stroke:none;stroke-width:5;stroke-linecap:round;stroke-linejoin:bevel;stroke-miterlimit:4;stroke-dasharray:none;stroke-dashoffset:37.41999817;stroke-opacity:1"
       id="rect4236"
       width="393.42856"
       height="134.85715"
       x="615.96832"
       y="-835.32629" />
    <ellipse
       style="display:inline;fill:#4d4d4d;fill-opacity:1;stroke:none;stroke-width:5;stroke-linecap:round;stroke-linejoin:bevel;stroke-miterlimit:4;stroke-dasharray:none;stroke-dashoffset:37.41999817;stroke-opacity:1"
       id="path4249-5-9"
       cx="820.39001"
       cy="-767.4024"
       rx="76.847702"
       ry="76.847679" />
    <ellipse
       style="display:inline;fill:#85a2f7;fill-opacity:1;stroke:none;stroke-width:5;stroke-linecap:round;stroke-linejoin:bevel;stroke-miterlimit:4;stroke-dasharray:none;stroke-dashoffset:37.41999817;stroke-opacity:1"
       id="path4249-5"
       cx="820.39001"
       cy="-767.4024"
       rx="63.510487"
       ry="63.510479" />
    <ellipse
       style="display:inline;fill:#4261ba;fill-opacity:1;stroke:none;stroke-width:5;stroke-linecap:round;stroke-linejoin:bevel;stroke-miterlimit:4;stroke-dasharray:none;stroke-dashoffset:37.41999817;stroke-opacity:1"
       id="path4249-5-3"
       cx="820.39001"
       cy="-767.4024"
       rx="51.443501"
       ry="51.443489" />
    <ellipse
       style="display:inline;fill:#2d427e;fill-opacity:1;stroke:none;stroke-width:5;stroke-linecap:round;stroke-linejoin:bevel;stroke-miterlimit:4;stroke-dasharray:none;stroke-dashoffset:37.41999817;stroke-opacity:1"
       id="path4249-5-3-8"
       cx="820.39001"
       cy="-767.4024"
       rx="41.669239"
       ry="41.669228" />
    <ellipse
       style="display:inline;fill:#4261ba;fill-opacity:1;stroke:none;stroke-width:5;stroke-linecap:round;stroke-linejoin:bevel;stroke-miterlimit:4;stroke-dasharray:none;stroke-dashoffset:37.41999817;stroke-opacity:1"
       id="path4249-5-3-8-0"
       cx="820.39001"
       cy="-767.4024"
       rx="22.144745"
       ry="22.144735" />
    <path
       style="display:inline;fill:#e3e3df;fill-opacity:1;stroke:none;stroke-width:5;stroke-linecap:round;stroke-linejoin:bevel;stroke-miterlimit:4;stroke-dasharray:none;stroke-dashoffset:37.41999817;stroke-opacity:1"
       d="m 820.38999,-845.31478 a 77.911895,77.911891 0 0 0 -77.91216,77.91217 77.911895,77.911891 0 0 0 77.91216,77.91217 77.911895,77.911891 0 0 0 77.91218,-77.91217 77.911895,77.911891 0 0 0 -77.91218,-77.91217 z m 0,21.114 a 56.797778,56.797768 0 0 1 56.79819,56.79817 56.797778,56.797768 0 0 1 -56.79819,56.79817 56.797778,56.797768 0 0 1 -56.79817,-56.79817 56.797778,56.797768 0 0 1 56.79817,-56.79817 z"
       id="path4249-3"
       inkscape:connector-curvature="0" />
    <ellipse
       style="fill:#f2f4fa;fill-opacity:0.43349759;stroke:none;stroke-width:5;stroke-linecap:round;stroke-linejoin:bevel;stroke-miterlimit:4;stroke-dasharray:none;stroke-dashoffset:37.41999817;stroke-opacity:1"
       id="path4420"
       cx="835.81854"
       cy="-781.68817"
       rx="8.000001"
       ry="8" />
  </g>
  <g
     inkscape:groupmode="layer"
     id="layer3"
     inkscape:label="shadows"
     transform="translate(0,1237.2382)">
    <path
       style="fill:#04060b;fill-opacity:0.43349759;fill-rule:evenodd;stroke:none;stroke-width:1px;stroke-linecap:butt;stroke-linejoin:miter;stroke-opacity:1"
       d="m 1018.1263,-798.72222 -85.24372,90.50157 127.99532,62.96094 72.4063,0 c 11.08,0 20,-8.92 20,-20 l 0,-64.31563 -135.1579,-69.14688 z"
       id="path4330"
       inkscape:connector-curvature="0" />
    <path
       style="fill:#2d2e30;fill-opacity:1;fill-rule:evenodd;stroke:none;stroke-width:1px;stroke-linecap:butt;stroke-linejoin:miter;stroke-opacity:1"
       d="m 895.53988,-966.50569 10.39874,43.43144 95.81218,-0.0126 -6.99288,-36.51292 c -0.71128,-6.5876 -4.68964,-6.64097 -8.34004,-7.35022"
       id="path4462"
       inkscape:connector-curvature="0"
       sodipodi:nodetypes="ccccc" />
  </g>
  <g
     inkscape:groupmode="layer"
     id="layer4"
     inkscape:label="upper-level"
     style="display:inline"
     transform="translate(0,1237.2382)">
    <path
       style="display:inline;fill:#e3e3df;fill-opacity:1;stroke:none;stroke-width:5;stroke-linecap:round;stroke-linejoin:bevel;stroke-miterlimit:4;stroke-dasharray:none;stroke-dashoffset:37.41999817;stroke-opacity:1"
       d="m 963.72008,-828.36857 a 63.108639,63.108632 0 0 0 -63.10886,63.10886 63.108639,63.108632 0 0 0 63.10886,63.10885 63.108639,63.108632 0 0 0 63.10892,-63.10885 63.108639,63.108632 0 0 0 -63.10892,-63.10886 z m 0,17.10233 a 46.006202,46.006192 0 0 1 46.00662,46.00653 46.006202,46.006192 0 0 1 -46.00662,46.00652 46.006202,46.006192 0 0 1 -46.00652,-46.00652 46.006202,46.006192 0 0 1 46.00652,-46.00653 z"
       id="path4249-3-9"
       inkscape:connector-curvature="0" />
  </g>
  <g
     inkscape:groupmode="layer"
     id="layer5"
     inkscape:label="camera-body 1"
     transform="translate(0,1237.2382)">
    <path
       style="fill:#4d4d4d;fill-opacity:1;stroke:none;stroke-width:5;stroke-linecap:round;stroke-linejoin:bevel;stroke-miterlimit:4;stroke-dasharray:none;stroke-dashoffset:37.41999817;stroke-opacity:1"
       d="m 0,-1235.2382 0,900.00004 1900,0 0,-900.00004 -1900,0 z m 952.94336,142.9434 a 299.99999,299.99999 0 0 1 300.00004,300 299.99999,299.99999 0 0 1 -300.00004,300 299.99999,299.99999 0 0 1 -300,-300 299.99999,299.99999 0 0 1 300,-300 z"
       id="rect4171"
       inkscape:connector-curvature="0" />
    <rect
       style="opacity:1;fill:#4d4d4d;fill-opacity:1;stroke:none;stroke-width:5;stroke-linecap:round;stroke-linejoin:bevel;stroke-miterlimit:4;stroke-dasharray:none;stroke-dashoffset:37.41999817;stroke-opacity:1"
       id="rect5264"
       width="1900"
       height="900"
       x="-5.4215161e-06"
       y="-337.23813"
       rx="3.2483499"
       ry="4.1777902" />
  </g>
</svg>
