<?xml version="1.0" encoding="UTF-8" standalone="no"?>
<!-- Created with Inkscape (http://www.inkscape.org/) -->

<svg
   xmlns:dc="http://purl.org/dc/elements/1.1/"
   xmlns:cc="http://creativecommons.org/ns#"
   xmlns:rdf="http://www.w3.org/1999/02/22-rdf-syntax-ns#"
   xmlns:svg="http://www.w3.org/2000/svg"
   xmlns="http://www.w3.org/2000/svg"
   xmlns:sodipodi="http://sodipodi.sourceforge.net/DTD/sodipodi-0.dtd"
   xmlns:inkscape="http://www.inkscape.org/namespaces/inkscape"
   width="73.991859mm"
   height="74.145538mm"
   viewBox="0 0 262.17588 262.72041"
   id="svg2"
   version="1.1"
   inkscape:version="0.91 r13725"
   sodipodi:docname="ban.svg">
  <defs
     id="defs4" />
  <sodipodi:namedview
     id="base"
     pagecolor="#ffffff"
     bordercolor="#666666"
     borderopacity="1.0"
     inkscape:pageopacity="0.0"
     inkscape:pageshadow="2"
     inkscape:zoom="1.2299842"
     inkscape:cx="162.09518"
     inkscape:cy="76.524092"
     inkscape:document-units="px"
     inkscape:current-layer="layer1"
     showgrid="true"
     fit-margin-top="0"
     fit-margin-left="0"
     fit-margin-right="0"
     fit-margin-bottom="0"
     inkscape:window-width="1855"
     inkscape:window-height="1056"
     inkscape:window-x="65"
     inkscape:window-y="24"
     inkscape:window-maximized="1" />
  <metadata
     id="metadata7">
    <rdf:RDF>
      <cc:Work
         rdf:about="">
        <dc:format>image/svg+xml</dc:format>
        <dc:type
           rdf:resource="http://purl.org/dc/dcmitype/StillImage" />
        <dc:title></dc:title>
      </cc:Work>
    </rdf:RDF>
  </metadata>
  <g
     inkscape:label="Layer 1"
     inkscape:groupmode="layer"
     id="layer1"
     transform="translate(-659.75216,-400.29375)">
    <path
       style="opacity:0.97600002;fill:#2b2b2b;fill-opacity:1;stroke:none;stroke-width:2;stroke-linecap:round;stroke-linejoin:miter;stroke-miterlimit:4;stroke-dasharray:none;stroke-dashoffset:0;stroke-opacity:1"
       d="m 849.00626,588.17744 c -6.66878,9.1379 -14.07119,19.83673 -20.66061,28.80694 l 33.26975,24.41192 7.66169,-11.43135 -3.67775,-2.87702 c 1.80514,-2.45205 50.07577,-47.08399 51.87918,-49.5391 0.0105,-0.0144 0.0208,-0.0286 0.0312,-0.043 l 2.16211,-2.94531 c 12.23472,-47.07646 -56.32486,-0.5392 -70.66557,13.61692 z"
       id="rect4231"
       inkscape:connector-curvature="0"
       sodipodi:nodetypes="ccccccccc" />
    <path
       sodipodi:nodetypes="cccccccssc"
       inkscape:connector-curvature="0"
       id="path4244"
       d="m 861.6154,641.3963 7.66169,-11.43135 -3.67775,-2.87702 c 1.4095,-3.11146 48.92674,-48.99904 51.87918,-49.5391 0.0105,-0.0144 0.0208,-0.0286 0.0312,-0.043 l -3.12251,3.35558 c 7.16385,-6.6498 9.37874,-15.97988 5.97566,-20.24801 -25.77742,45.44127 -51.53571,56.33306 -59.39379,61.29315 -10.35989,6.53925 -34.05333,-6.06711 -32.92309,-5.1663 10.69972,8.52774 25.65385,18.6748 33.56941,24.65605 z"
       style="opacity:0.97600002;fill:#1d1d1d;fill-opacity:0.97647059;stroke:none;stroke-width:2;stroke-linecap:round;stroke-linejoin:miter;stroke-miterlimit:4;stroke-dasharray:none;stroke-dashoffset:0;stroke-opacity:1" />
    <path
       style="opacity:0.97600002;fill:#996c43;fill-opacity:1;stroke:none;stroke-width:2;stroke-linecap:round;stroke-linejoin:miter;stroke-miterlimit:4;stroke-dasharray:none;stroke-dashoffset:0;stroke-opacity:1"
       d="m 660.65214,404.55056 135.85315,-4.25681 0,257.90776 -136.75313,4.81266 z"
       id="rect4208"
       inkscape:connector-curvature="0"
       sodipodi:nodetypes="ccccc" />
    <path
       transform="matrix(0.80514753,0.59307458,-0.59307458,0.80514753,0,0)"
       style="opacity:1;fill:#575757;fill-opacity:1;stroke:none;stroke-width:2;stroke-linecap:round;stroke-linejoin:miter;stroke-miterlimit:4;stroke-dasharray:none;stroke-dashoffset:0;stroke-opacity:1"
       d="m 863.77533,-30.426937 155.75427,-3.035604 11.9704,-5.810742 c 8.3441,14.521726 17.0355,33.7239212 4.9052,46.0895185 L 1025.1171,2.6917366 863.77533,5.287323 Z"
       id="rect4229"
       inkscape:connector-curvature="0"
       sodipodi:nodetypes="ccccccc" />
    <path
       sodipodi:nodetypes="cccscsc"
       inkscape:connector-curvature="0"
       id="path4251"
       d="M 1036.5257,6.9798855 1025.1171,2.6917366 863.77533,5.287323 c 42.77378,-2.6446318 129.94361,1.6005724 165.13687,-10.4824489 19.0321,-6.5343241 1.9712,-33.3551441 1.9712,-33.3551441 8.3801,11.746094 12.9958,21.34406 11.4708,32.3994505 -0.66,4.7852308 -3.5052,11.6860379 -5.8285,13.130705 z"
       style="opacity:1;fill:#404040;fill-opacity:1;stroke:none;stroke-width:2;stroke-linecap:round;stroke-linejoin:miter;stroke-miterlimit:4;stroke-dasharray:none;stroke-dashoffset:0;stroke-opacity:1"
       transform="matrix(0.80514753,0.59307458,-0.59307458,0.80514753,0,0)" />
    <path
       sodipodi:nodetypes="ccccc"
       inkscape:connector-curvature="0"
       id="path4211"
       d="m 664.07427,417.5109 132.02696,-16.45804 -0.0867,256.6005 -131.46193,-3.02521 z"
       style="opacity:0.97600002;fill:#a97d50;fill-opacity:1;stroke:none;stroke-width:2;stroke-linecap:round;stroke-linejoin:miter;stroke-miterlimit:4;stroke-dasharray:none;stroke-dashoffset:0;stroke-opacity:1" />
    <path
       style="opacity:0.97600002;fill:#8b5f3c;fill-opacity:1;stroke:none;stroke-width:2;stroke-linecap:round;stroke-linejoin:miter;stroke-miterlimit:4;stroke-dasharray:none;stroke-dashoffset:0;stroke-opacity:1"
       d="m 673.26666,543.24532 109.09648,-3.03046 -0.50508,99.50003 -107.58125,3.53553 z"
       id="rect4213"
       inkscape:connector-curvature="0"
       sodipodi:nodetypes="ccccc" />
    <path
       sodipodi:nodetypes="ccccc"
       inkscape:connector-curvature="0"
       id="path4216"
       d="m 673.77174,433.64376 109.09648,-3.03046 -0.50508,99.50003 -107.58125,3.53553 z"
       style="opacity:0.97600002;fill:#8b5f3c;fill-opacity:1;stroke:none;stroke-width:2;stroke-linecap:round;stroke-linejoin:miter;stroke-miterlimit:4;stroke-dasharray:none;stroke-dashoffset:0;stroke-opacity:1" />
    <ellipse
       style="opacity:0.97600002;fill:#ebc154;fill-opacity:1;stroke:none;stroke-width:2;stroke-linecap:round;stroke-linejoin:miter;stroke-miterlimit:4;stroke-dasharray:none;stroke-dashoffset:0;stroke-opacity:1"
       id="path4218"
       cx="788.42407"
       cy="535.41663"
       rx="6.5659914"
       ry="6.8185296" />
    <path
       style="opacity:0.97600002;fill:#ddae51;fill-opacity:1;stroke:none;stroke-width:2;stroke-linecap:round;stroke-linejoin:miter;stroke-miterlimit:4;stroke-dasharray:none;stroke-dashoffset:0;stroke-opacity:1"
       d="m 786.24236,541.84775 c -2.77555,-1.01541 -4.56156,-3.82454 -4.37041,-6.87402 0.19115,-3.04948 2.31275,-5.59446 5.19164,-6.22766 -2.88575,4.67837 -3.13217,8.25945 -0.82123,13.10168 z"
       id="ellipse4220"
       inkscape:connector-curvature="0"
       sodipodi:nodetypes="cscc" />
    <path
       style="opacity:0.97600002;fill:#7c4f2e;fill-opacity:1;stroke:none;stroke-width:2;stroke-linecap:round;stroke-linejoin:miter;stroke-miterlimit:4;stroke-dasharray:none;stroke-dashoffset:0;stroke-opacity:1"
       d="m 673.77174,433.64376 23.99113,-0.85325 c -6.16229,21.74219 -20.78971,33.66633 9.03009,99.7436 l -32.01107,1.11475 z"
       id="path4223"
       inkscape:connector-curvature="0"
       sodipodi:nodetypes="ccccc" />
    <path
       sodipodi:nodetypes="ccccc"
       inkscape:connector-curvature="0"
       id="path4225"
       d="m 673.23603,543.46519 23.73859,-0.97952 c -6.16229,21.74219 -20.18003,33.43545 9.63977,99.51272 l -32.72535,0.57904 z"
       style="opacity:0.97600002;fill:#7c4f2e;fill-opacity:1;stroke:none;stroke-width:2;stroke-linecap:round;stroke-linejoin:miter;stroke-miterlimit:4;stroke-dasharray:none;stroke-dashoffset:0;stroke-opacity:1" />
  </g>
</svg>
