<?xml version="1.0" encoding="UTF-8" standalone="no"?>
<!-- Created with Inkscape (http://www.inkscape.org/) -->

<svg
   xmlns:dc="http://purl.org/dc/elements/1.1/"
   xmlns:cc="http://creativecommons.org/ns#"
   xmlns:rdf="http://www.w3.org/1999/02/22-rdf-syntax-ns#"
   xmlns:svg="http://www.w3.org/2000/svg"
   xmlns="http://www.w3.org/2000/svg"
   xmlns:sodipodi="http://sodipodi.sourceforge.net/DTD/sodipodi-0.dtd"
   xmlns:inkscape="http://www.inkscape.org/namespaces/inkscape"
   width="200"
   height="200"
   viewBox="0 0 200 200"
   id="svg2"
   version="1.1"
   inkscape:version="0.91 r13725"
   sodipodi:docname="browse.svg">
  <defs
     id="defs4" />
  <sodipodi:namedview
     id="base"
     pagecolor="#ffffff"
     bordercolor="#666666"
     borderopacity="1.0"
     inkscape:pageopacity="0.0"
     inkscape:pageshadow="2"
     inkscape:zoom="1.6281134"
     inkscape:cx="43.601822"
     inkscape:cy="91.313789"
     inkscape:document-units="px"
     inkscape:current-layer="layer1"
     showgrid="true"
     units="px"
     inkscape:window-width="1855"
     inkscape:window-height="1056"
     inkscape:window-x="65"
     inkscape:window-y="24"
     inkscape:window-maximized="1">
    <inkscape:grid
       type="xygrid"
       id="grid4136"
       empspacing="5"
       spacingx="10"
       spacingy="10"
       color="#4f6bd5"
       opacity="0.20784314"
       empcolor="#3f1e12"
       empopacity="0.96862745" />
  </sodipodi:namedview>
  <metadata
     id="metadata7">
    <rdf:RDF>
      <cc:Work
         rdf:about="">
        <dc:format>image/svg+xml</dc:format>
        <dc:type
           rdf:resource="http://purl.org/dc/dcmitype/StillImage" />
        <dc:title></dc:title>
      </cc:Work>
    </rdf:RDF>
  </metadata>
  <g
     inkscape:label="Layer 1"
     inkscape:groupmode="layer"
     id="layer1"
     transform="translate(0,-852.36216)">
    <rect
       style="fill:#2eb206;fill-opacity:1;fill-rule:evenodd;stroke:none;stroke-width:1px;stroke-linecap:butt;stroke-linejoin:miter;stroke-opacity:1"
       id="rect4504"
       width="23.311449"
       height="75.445366"
       x="-593.00269"
       y="728.79205"
       rx="20.656"
       ry="10"
       transform="matrix(0.69008468,-0.72372863,0.69297915,0.72095763,0,0)" />
  </g>
  <g
     inkscape:groupmode="layer"
     id="layer2"
     inkscape:label="Layer 2"
     style="display:inline">
    <path
       style="fill:#2eb206;fill-opacity:1;stroke:none;stroke-opacity:1"
       d="M 67,7.0834372 A 47.916002,47.916002 0 0 0 19.083437,55 47.916002,47.916002 0 0 0 67,102.91656 47.916002,47.916002 0 0 0 114.91656,55 47.916002,47.916002 0 0 0 67,7.0834372 Z M 67,19 A 36,36 0 0 1 103,55 36,36 0 0 1 67,91 36,36 0 0 1 31,55 36,36 0 0 1 67,19 Z"
       id="path4506-3"
       inkscape:connector-curvature="0" />
  </g>
</svg>
