<?xml version="1.0" encoding="UTF-8" standalone="no"?>
<!-- Created with Inkscape (http://www.inkscape.org/) -->

<svg
   xmlns:dc="http://purl.org/dc/elements/1.1/"
   xmlns:cc="http://creativecommons.org/ns#"
   xmlns:rdf="http://www.w3.org/1999/02/22-rdf-syntax-ns#"
   xmlns:svg="http://www.w3.org/2000/svg"
   xmlns="http://www.w3.org/2000/svg"
   xmlns:sodipodi="http://sodipodi.sourceforge.net/DTD/sodipodi-0.dtd"
   xmlns:inkscape="http://www.inkscape.org/namespaces/inkscape"
   width="742.95508"
   height="562.76196"
   viewBox="0 0 742.95514 562.76199"
   id="svg16540"
   version="1.1"
   inkscape:version="0.91 r13725"
   sodipodi:docname="camera-base.svg">
  <defs
     id="defs16542" />
  <sodipodi:namedview
     id="base"
     pagecolor="#ffffff"
     bordercolor="#666666"
     borderopacity="1.0"
     inkscape:pageopacity="0.0"
     inkscape:pageshadow="2"
     inkscape:zoom="0.49497475"
     inkscape:cx="589.69378"
     inkscape:cy="69.884576"
     inkscape:document-units="px"
     inkscape:current-layer="layer3"
     showgrid="true"
     units="px"
     inkscape:window-width="924"
     inkscape:window-height="1026"
     inkscape:window-x="992"
     inkscape:window-y="24"
     inkscape:window-maximized="0"
     fit-margin-left="200"
     fit-margin-top="100"
     fit-margin-right="50"
     fit-margin-bottom="100">
    <inkscape:grid
       type="xygrid"
       id="grid4242" />
  </sodipodi:namedview>
  <metadata
     id="metadata16545">
    <rdf:RDF>
      <cc:Work
         rdf:about="">
        <dc:format>image/svg+xml</dc:format>
        <dc:type
           rdf:resource="http://purl.org/dc/dcmitype/StillImage" />
        <dc:title></dc:title>
      </cc:Work>
    </rdf:RDF>
  </metadata>
  <g
     inkscape:label="Layer 1"
     inkscape:groupmode="layer"
     id="layer1"
     transform="translate(143.33009,-450.21911)"
     style="display:inline">
    <rect
       style="fill:#830c0c;fill-opacity:1;stroke:none;stroke-width:5;stroke-linecap:round;stroke-linejoin:bevel;stroke-miterlimit:4;stroke-dasharray:none;stroke-dashoffset:37.41999817;stroke-opacity:1"
       id="rect17094"
       width="57.85714"
       height="32.85714"
       x="390.42856"
       y="550.21912"
       rx="5.9558821"
       ry="7.4193544" />
    <rect
       style="fill:#4261ba;fill-opacity:1;stroke:none;stroke-width:5;stroke-linecap:round;stroke-linejoin:bevel;stroke-miterlimit:4;stroke-dasharray:none;stroke-dashoffset:37.41999817;stroke-opacity:1"
       id="rect17092"
       width="105.05585"
       height="68.690369"
       x="344.12192"
       y="599.95581"
       rx="8.965517"
       ry="11.333334" />
    <rect
       style="fill:#85a2f7;fill-opacity:1;stroke:none;stroke-width:5;stroke-linecap:round;stroke-linejoin:bevel;stroke-miterlimit:4;stroke-dasharray:none;stroke-dashoffset:37.41999817;stroke-opacity:1"
       id="rect17092-1"
       width="105.05586"
       height="68.690376"
       x="355.04355"
       y="610.87396"
       rx="8.965518"
       ry="11.333335" />
    <rect
       style="fill:#fcfcfd;fill-opacity:1;stroke:none;stroke-width:5;stroke-linecap:round;stroke-linejoin:bevel;stroke-miterlimit:4;stroke-dasharray:none;stroke-dashoffset:37.41999817;stroke-opacity:1"
       id="rect4178"
       width="85"
       height="5"
       x="355.42856"
       y="612.93341"
       rx="2.8110237"
       ry="5" />
    <rect
       style="display:inline;fill:#fcfcfd;fill-opacity:1;stroke:none;stroke-width:5;stroke-linecap:round;stroke-linejoin:bevel;stroke-miterlimit:4;stroke-dasharray:none;stroke-dashoffset:37.41999817;stroke-opacity:1"
       id="rect4178-8"
       width="85.000008"
       height="5.0000005"
       x="355.42856"
       y="627.93341"
       rx="2.811024"
       ry="5.0000005" />
    <rect
       style="display:inline;fill:#fcfcfd;fill-opacity:1;stroke:none;stroke-width:5;stroke-linecap:round;stroke-linejoin:bevel;stroke-miterlimit:4;stroke-dasharray:none;stroke-dashoffset:37.41999817;stroke-opacity:1"
       id="rect4178-8-4"
       width="85.000015"
       height="5.000001"
       x="355.42856"
       y="642.93341"
       rx="2.8110242"
       ry="5.000001" />
    <path
       style="fill:#4d4d4d;fill-opacity:1;stroke:none;stroke-width:5;stroke-linecap:round;stroke-linejoin:bevel;stroke-miterlimit:4;stroke-dasharray:none;stroke-dashoffset:37.41999817;stroke-opacity:1"
       d="m 164.24133,510.83823 112.14286,0.71428 c 5.53989,0.0353 8.94258,4.56185 10,10 l 10,51.42858 c 1.05742,5.43815 -4.46,10 -10,10 l -138.57143,0 c -5.54,0 -11.6648,-4.71606 -10,-10 l 16.42857,-52.14286 c 1.66481,-5.28394 4.46011,-10.03529 10,-10 z"
       id="rect4239"
       inkscape:connector-curvature="0"
       sodipodi:nodetypes="sssssssss" />
  </g>
  <g
     inkscape:groupmode="layer"
     id="layer2"
     inkscape:label="camera-body"
     style="display:inline"
     transform="translate(143.33009,2.1429004)">
    <path
       style="fill:#e3e3df;fill-opacity:1;stroke:none;stroke-width:5;stroke-linecap:round;stroke-linejoin:bevel;stroke-miterlimit:4;stroke-dasharray:none;stroke-dashoffset:37.41999817;stroke-opacity:1"
       d="m 15.669922,113.12692 c -13.8499985,0 -25.000001,11.15 -25.000001,25 l 0,297.49219 c 0,13.85 11.1500025,25 25.000001,25 l 442.955078,0 c 13.85,0 25,-11.15 25,-25 l 0,-297.49219 c 0,-13.85 -11.15,-25 -25,-25 l -442.955078,0 z m 337.417968,34.4668 87.125,0 c 4.9669,0 8.96484,5.05532 8.96484,11.33398 l 0,46.02344 c 0,6.27867 -3.99794,11.33399 -8.96484,11.33399 l -87.125,0 c -4.9669,0 -8.9668,-5.05532 -8.9668,-11.33399 l 0,-46.02344 c 0,-6.27866 3.9999,-11.33398 8.9668,-11.33398 z"
       id="rect17090"
       inkscape:connector-curvature="0" />
    <rect
       style="display:inline;fill:#4d4d4d;fill-opacity:1;stroke:none;stroke-width:5;stroke-linecap:round;stroke-linejoin:bevel;stroke-miterlimit:4;stroke-dasharray:none;stroke-dashoffset:37.41999817;stroke-opacity:1"
       id="rect4236"
       width="491.78571"
       height="168.57143"
       x="-8.8571444"
       y="225.71428" />
    <ellipse
       style="display:inline;fill:#4d4d4d;fill-opacity:1;stroke:none;stroke-width:5;stroke-linecap:round;stroke-linejoin:bevel;stroke-miterlimit:4;stroke-dasharray:none;stroke-dashoffset:37.41999817;stroke-opacity:1"
       id="path4249-5-9"
       cx="246.66994"
       cy="310.61908"
       rx="96.059624"
       ry="96.059601" />
    <ellipse
       style="display:inline;fill:#85a2f7;fill-opacity:1;stroke:none;stroke-width:5;stroke-linecap:round;stroke-linejoin:bevel;stroke-miterlimit:4;stroke-dasharray:none;stroke-dashoffset:37.41999817;stroke-opacity:1"
       id="path4249-5"
       cx="246.66992"
       cy="310.61908"
       rx="79.388107"
       ry="79.3881" />
    <ellipse
       style="display:inline;fill:#4261ba;fill-opacity:1;stroke:none;stroke-width:5;stroke-linecap:round;stroke-linejoin:bevel;stroke-miterlimit:4;stroke-dasharray:none;stroke-dashoffset:37.41999817;stroke-opacity:1"
       id="path4249-5-3"
       cx="246.66994"
       cy="310.61908"
       rx="64.304375"
       ry="64.304359" />
    <ellipse
       style="display:inline;fill:#2d427e;fill-opacity:1;stroke:none;stroke-width:5;stroke-linecap:round;stroke-linejoin:bevel;stroke-miterlimit:4;stroke-dasharray:none;stroke-dashoffset:37.41999817;stroke-opacity:1"
       id="path4249-5-3-8"
       cx="246.66994"
       cy="310.61908"
       rx="52.086548"
       ry="52.086533" />
    <ellipse
       style="display:inline;fill:#4261ba;fill-opacity:1;stroke:none;stroke-width:5;stroke-linecap:round;stroke-linejoin:bevel;stroke-miterlimit:4;stroke-dasharray:none;stroke-dashoffset:37.41999817;stroke-opacity:1"
       id="path4249-5-3-8-0"
       cx="246.66994"
       cy="310.61908"
       rx="27.680931"
       ry="27.68092" />
    <path
       style="display:inline;fill:#e3e3df;fill-opacity:1;stroke:none;stroke-width:5;stroke-linecap:round;stroke-linejoin:bevel;stroke-miterlimit:4;stroke-dasharray:none;stroke-dashoffset:37.41999817;stroke-opacity:1"
       d="m 246.66991,213.2286 a 97.389869,97.389864 0 0 0 -97.39021,97.39022 97.389869,97.389864 0 0 0 97.39021,97.39021 97.389869,97.389864 0 0 0 97.39022,-97.39021 97.389869,97.389864 0 0 0 -97.39022,-97.39022 z m 0,26.3925 a 70.997222,70.99721 0 0 1 70.99773,70.99772 70.997222,70.99721 0 0 1 -70.99773,70.99772 70.997222,70.99721 0 0 1 -70.99772,-70.99772 70.997222,70.99721 0 0 1 70.99772,-70.99772 z"
       id="path4249-3"
       inkscape:connector-curvature="0" />
    <ellipse
       style="fill:#f2f4fa;fill-opacity:0.43349759;stroke:none;stroke-width:5;stroke-linecap:round;stroke-linejoin:bevel;stroke-miterlimit:4;stroke-dasharray:none;stroke-dashoffset:37.41999817;stroke-opacity:1"
       id="path4420"
       cx="265.95566"
       cy="292.76193"
       rx="10.000001"
       ry="10" />
  </g>
  <g
     inkscape:groupmode="layer"
     id="layer3"
     inkscape:label="shadows">
    <path
       style="fill:#04060b;fill-opacity:0.43349759;fill-rule:evenodd;stroke:none;stroke-width:1px;stroke-linecap:butt;stroke-linejoin:miter;stroke-opacity:1"
       d="M 458.00781 270.93359 L 351.45312 384.06055 L 511.44727 462.76172 L 601.95508 462.76172 C 615.80508 462.76172 626.95508 451.61172 626.95508 437.76172 L 626.95508 357.36719 L 458.00781 270.93359 z "
       id="path4330" />
    <path
       style="fill:#2d2e30;fill-opacity:1;fill-rule:evenodd;stroke:none;stroke-width:1px;stroke-linecap:butt;stroke-linejoin:miter;stroke-opacity:1"
       d="m 304.77474,61.204248 12.99843,54.289292 119.76523,-0.0158 -8.74116,-45.641142 c -0.88905,-8.234507 -5.86199,-8.301213 -10.425,-9.187785"
       id="path4462"
       inkscape:connector-curvature="0"
       sodipodi:nodetypes="ccccc" />
  </g>
  <g
     inkscape:groupmode="layer"
     id="layer4"
     inkscape:label="upper-level"
     style="display:inline">
    <path
       style="display:inline;fill:#e3e3df;fill-opacity:1;stroke:none;stroke-width:5;stroke-linecap:round;stroke-linejoin:bevel;stroke-miterlimit:4;stroke-dasharray:none;stroke-dashoffset:37.41999817;stroke-opacity:1"
       d="m 389.99999,233.87564 a 78.885799,78.88579 0 0 0 -78.88607,78.88608 78.885799,78.88579 0 0 0 78.88607,78.88607 78.885799,78.88579 0 0 0 78.88609,-78.88607 78.885799,78.88579 0 0 0 -78.88609,-78.88608 z m 0,21.37792 a 57.507753,57.50774 0 0 1 57.50817,57.50816 57.507753,57.50774 0 0 1 -57.50817,57.50815 57.507753,57.50774 0 0 1 -57.50815,-57.50815 57.507753,57.50774 0 0 1 57.50815,-57.50816 z"
       id="path4249-3-9"
       inkscape:connector-curvature="0" />
  </g>
  <g
     inkscape:groupmode="layer"
     id="layer5"
     inkscape:label="camera-body 1" />
</svg>
