<?xml version="1.0" encoding="UTF-8" standalone="no"?>
<!-- Created with Inkscape (http://www.inkscape.org/) -->

<svg
   xmlns:dc="http://purl.org/dc/elements/1.1/"
   xmlns:cc="http://creativecommons.org/ns#"
   xmlns:rdf="http://www.w3.org/1999/02/22-rdf-syntax-ns#"
   xmlns:svg="http://www.w3.org/2000/svg"
   xmlns="http://www.w3.org/2000/svg"
   xmlns:sodipodi="http://sodipodi.sourceforge.net/DTD/sodipodi-0.dtd"
   xmlns:inkscape="http://www.inkscape.org/namespaces/inkscape"
   width="73.991859mm"
   height="74.145538mm"
   viewBox="0 0 262.17588 262.72041"
   id="svg2"
   version="1.1"
   inkscape:version="0.91 r13725"
   sodipodi:docname="delete.svg">
  <defs
     id="defs4" />
  <sodipodi:namedview
     id="base"
     pagecolor="#ffffff"
     bordercolor="#666666"
     borderopacity="1.0"
     inkscape:pageopacity="0.0"
     inkscape:pageshadow="2"
     inkscape:zoom="1.2299842"
     inkscape:cx="145.83481"
     inkscape:cy="174.08632"
     inkscape:document-units="px"
     inkscape:current-layer="layer1"
     showgrid="true"
     fit-margin-top="0"
     fit-margin-left="0"
     fit-margin-right="0"
     fit-margin-bottom="0"
     inkscape:window-width="1855"
     inkscape:window-height="1056"
     inkscape:window-x="65"
     inkscape:window-y="24"
     inkscape:window-maximized="1" />
  <metadata
     id="metadata7">
    <rdf:RDF>
      <cc:Work
         rdf:about="">
        <dc:format>image/svg+xml</dc:format>
        <dc:type
           rdf:resource="http://purl.org/dc/dcmitype/StillImage" />
        <dc:title></dc:title>
      </cc:Work>
    </rdf:RDF>
  </metadata>
  <g
     inkscape:label="Layer 1"
     inkscape:groupmode="layer"
     id="layer1"
     transform="translate(-659.75216,-400.29375)">
    <path
       style="opacity:1;fill:#a24141;fill-opacity:1;stroke:none;stroke-width:2;stroke-linecap:round;stroke-linejoin:miter;stroke-miterlimit:4;stroke-dasharray:none;stroke-dashoffset:0;stroke-opacity:1"
       d="m 741.1963,452.34503 c -13.573,0 -24.5,10.927 -24.5,24.5 l 0,148.5625 c 0,13.573 10.927,24.5 24.5,24.5 l 96.5293,0 c 13.573,0 24.5,-10.927 24.5,-24.5 l 0,-148.5625 c 0,-13.573 -10.927,-24.5 -24.5,-24.5 l -96.5293,0 z m 7.73437,24.0918 c 6.68828,0 12.07227,8.49987 12.07227,19.05664 l 0,117.6836 c 0,10.55678 -5.38399,19.05664 -12.07227,19.05664 -6.68829,0 -12.07422,-8.49986 -12.07422,-19.05664 l 0,-117.6836 c 0,-10.55677 5.38593,-19.05664 12.07422,-19.05664 z m 40,0 c 6.68828,0 12.07227,8.49987 12.07227,19.05664 l 0,117.6836 c 0,10.55678 -5.38399,19.05664 -12.07227,19.05664 -6.68829,0 -12.07421,-8.49986 -12.07421,-19.05664 l 0,-117.6836 c 0,-10.55677 5.38592,-19.05664 12.07421,-19.05664 z m 40,0 c 6.68828,0 12.07227,8.49987 12.07227,19.05664 l 0,117.6836 c 0,10.55678 -5.38399,19.05664 -12.07227,19.05664 -6.68829,0 -12.07421,-8.49986 -12.07421,-19.05664 l 0,-117.6836 c 0,-10.55677 5.38592,-19.05664 12.07421,-19.05664 z"
       id="rect4521"
       inkscape:connector-curvature="0" />
    <g
       id="g4529" />
    <path
       style="opacity:1;fill:#a24141;fill-opacity:1;stroke:none;stroke-width:2;stroke-linecap:round;stroke-linejoin:miter;stroke-miterlimit:4;stroke-dasharray:none;stroke-dashoffset:0;stroke-opacity:1"
       d="m 789.08186,416.87919 c -39.23478,0 -71.70401,12.47102 -78.72339,29.05911 l 157.44678,0 c -7.01938,-16.58809 -39.4886,-29.05911 -78.72339,-29.05911 z"
       id="rect4541"
       inkscape:connector-curvature="0" />
    <rect
       style="opacity:1;fill:#a24141;fill-opacity:1;stroke:none;stroke-width:2;stroke-linecap:round;stroke-linejoin:miter;stroke-miterlimit:4;stroke-dasharray:none;stroke-dashoffset:0;stroke-opacity:1"
       id="rect4548"
       width="57.489094"
       height="16.671837"
       x="759.20831"
       y="408.91235"
       rx="1.5" />
  </g>
</svg>
